# Blender v2.78 (sub 0) OBJ File: ''
# www.blender.org
o Plane_Plane.001
v -32.000000 0.000000 32.000000
v 32.000000 0.000000 32.000000
v -32.000000 0.000000 -32.000000
v 32.000000 0.000000 -32.000000
v -32.000000 0.000000 0.000000
v 0.000000 0.000000 32.000000
v 32.000000 0.000000 0.000000
v 0.000000 0.000000 -32.000000
v 0.000000 0.000000 0.000000
v -32.000000 0.000000 16.000000
v 16.000000 0.000000 32.000000
v 32.000000 0.000000 -16.000000
v -16.000000 0.000000 -32.000000
v -32.000000 0.000000 -16.000000
v -16.000000 0.000000 32.000000
v 32.000000 0.000000 16.000000
v 16.000000 0.000000 -32.000000
v 0.000000 0.000000 -16.000000
v 0.000000 0.000000 16.000000
v -16.000000 0.000000 0.000000
v 16.000000 0.000000 0.000000
v 16.000000 0.000000 16.000000
v -16.000000 0.000000 16.000000
v -16.000000 0.000000 -16.000000
v 16.000000 0.000000 -16.000000
v -32.000000 0.000000 24.000000
v 24.000000 0.000000 32.000000
v 32.000000 0.000000 -24.000000
v -24.000000 0.000000 -32.000000
v -32.000000 0.000000 -8.000000
v -8.000000 0.000000 32.000000
v 32.000000 0.000000 8.000000
v 8.000000 0.000000 -32.000000
v 0.000000 0.000000 -24.000000
v 0.000000 0.000000 8.000000
v -24.000000 0.000000 0.000000
v 8.000000 0.000000 0.000000
v -32.000000 0.000000 8.000000
v 8.000000 0.000000 32.000000
v 32.000000 0.000000 -8.000000
v -8.000000 0.000000 -32.000000
v -32.000000 0.000000 -24.000000
v -24.000000 0.000000 32.000000
v 32.000000 0.000000 24.000000
v 24.000000 0.000000 -32.000000
v 0.000000 0.000000 -8.000000
v 0.000000 0.000000 24.000000
v -8.000000 0.000000 0.000000
v 24.000000 0.000000 0.000000
v 16.000000 0.000000 8.000000
v 16.000000 0.000000 24.000000
v 8.000000 0.000000 16.000000
v 24.000000 0.000000 16.000000
v -16.000000 0.000000 8.000000
v -16.000000 0.000000 24.000000
v -24.000000 0.000000 16.000000
v -8.000000 0.000000 16.000000
v -16.000000 0.000000 -24.000000
v -16.000000 0.000000 -8.000000
v -24.000000 0.000000 -16.000000
v -8.000000 0.000000 -16.000000
v 16.000000 0.000000 -24.000000
v 16.000000 0.000000 -8.000000
v 8.000000 0.000000 -16.000000
v 24.000000 0.000000 -16.000000
v 24.000000 0.000000 -8.000000
v 8.000000 0.000000 -8.000000
v 8.000000 0.000000 -24.000000
v -8.000000 0.000000 -8.000000
v -24.000000 0.000000 -8.000000
v -24.000000 0.000000 -24.000000
v -8.000000 0.000000 24.000000
v -24.000000 0.000000 24.000000
v -24.000000 0.000000 8.000000
v 24.000000 0.000000 24.000000
v 8.000000 0.000000 24.000000
v 8.000000 0.000000 8.000000
v 24.000000 0.000000 8.000000
v -8.000000 0.000000 8.000000
v -8.000000 0.000000 -24.000000
v 24.000000 0.000000 -24.000000
vt -7.4936 -5.4995
vt -5.4940 -7.4977
vt -5.4947 -5.4988
vt 0.5021 -5.4967
vt 2.5017 -7.4950
vt 2.5010 -5.4960
vt 0.4993 2.4989
vt 2.4989 0.5007
vt 2.4982 2.4996
vt -7.4963 2.4961
vt -5.4967 0.4979
vt -5.4974 2.4968
vt -3.4985 2.4975
vt -1.4989 0.4993
vt -1.4996 2.4982
vt -3.4999 6.4953
vt -1.5003 4.4971
vt -1.5010 6.4960
vt -7.4977 6.4940
vt -5.4981 4.4957
vt -5.4988 6.4947
vt 4.4971 2.5003
vt 6.4967 0.5021
vt 6.4960 2.5010
vt 4.4957 6.4981
vt 6.4953 4.4999
vt 6.4947 6.4988
vt 0.4979 6.4967
vt 2.4975 4.4985
vt 2.4968 6.4974
vt 4.4999 -5.4953
vt 6.4995 -7.4936
vt 6.4988 -5.4947
vt 4.4985 -1.4975
vt 6.4981 -3.4957
vt 6.4974 -1.4968
vt 0.5007 -1.4989
vt 2.5003 -3.4971
vt 2.4996 -1.4982
vt -3.4958 -5.4981
vt -1.4962 -7.4963
vt -1.4968 -5.4974
vt -3.4971 -1.5003
vt -1.4975 -3.4985
vt -1.4982 -1.4996
vt -7.4950 -1.5017
vt -5.4954 -3.4999
vt -5.4960 -1.5010
vt -3.4964 -3.4992
vt -3.4978 0.4986
vt -7.4956 0.4972
vt 0.5014 -3.4978
vt 0.5000 0.5000
vt 0.5028 -7.4956
vt 4.4992 -3.4964
vt 4.4978 0.5014
vt 8.4970 -3.4951
vt 8.4963 -1.4961
vt 8.4956 0.5028
vt 8.4984 -7.4929
vt 8.4977 -5.4940
vt 4.4964 4.4992
vt 2.4961 8.4963
vt 4.4951 8.4970
vt 0.4972 8.4956
vt 8.4943 4.5006
vt 8.4936 6.4995
vt 6.4940 8.4977
vt 8.4929 8.4984
vt 8.4949 2.5017
vt -3.4992 4.4964
vt -5.4995 8.4936
vt -3.5006 8.4943
vt -7.4984 8.4929
vt 0.4986 4.4978
vt -1.5017 8.4949
vt -7.4970 4.4951
vt 4.5006 -7.4943
vt -3.4951 -7.4970
vt -7.4943 -3.5006
vt -7.4929 -7.4984
vn 0.0000 1.0000 0.0000
s 1
f 28/1/1 45/2/1 81/3/1
f 34/4/1 41/5/1 80/6/1
f 35/7/1 48/8/1 79/9/1
f 32/10/1 49/11/1 78/12/1
f 50/13/1 37/14/1 77/15/1
f 51/16/1 52/17/1 76/18/1
f 44/19/1 53/20/1 75/21/1
f 54/22/1 36/23/1 74/24/1
f 55/25/1 56/26/1 73/27/1
f 47/28/1 57/29/1 72/30/1
f 58/31/1 29/32/1 71/33/1
f 59/34/1 60/35/1 70/36/1
f 46/37/1 61/38/1 69/39/1
f 62/40/1 33/41/1 68/42/1
f 63/43/1 64/44/1 67/45/1
f 40/46/1 65/47/1 66/48/1
f 66/48/1 25/49/1 63/43/1
f 49/11/1 63/43/1 21/50/1
f 7/51/1 66/48/1 49/11/1
f 67/45/1 18/52/1 46/37/1
f 37/14/1 46/37/1 9/53/1
f 21/50/1 67/45/1 37/14/1
f 68/42/1 8/54/1 34/4/1
f 64/44/1 34/4/1 18/52/1
f 25/49/1 68/42/1 64/44/1
f 69/39/1 24/55/1 59/34/1
f 48/8/1 59/34/1 20/56/1
f 9/53/1 69/39/1 48/8/1
f 70/36/1 14/57/1 30/58/1
f 36/23/1 30/58/1 5/59/1
f 20/56/1 70/36/1 36/23/1
f 71/33/1 3/60/1 42/61/1
f 60/35/1 42/61/1 14/57/1
f 24/55/1 71/33/1 60/35/1
f 72/30/1 23/62/1 55/25/1
f 31/63/1 55/25/1 15/64/1
f 6/65/1 72/30/1 31/63/1
f 73/27/1 10/66/1 26/67/1
f 43/68/1 26/67/1 1/69/1
f 15/64/1 73/27/1 43/68/1
f 74/24/1 5/59/1 38/70/1
f 56/26/1 38/70/1 10/66/1
f 23/62/1 74/24/1 56/26/1
f 75/21/1 22/71/1 51/16/1
f 27/72/1 51/16/1 11/73/1
f 2/74/1 75/21/1 27/72/1
f 76/18/1 19/75/1 47/28/1
f 39/76/1 47/28/1 6/65/1
f 11/73/1 76/18/1 39/76/1
f 77/15/1 9/53/1 35/7/1
f 52/17/1 35/7/1 19/75/1
f 22/71/1 77/15/1 52/17/1
f 78/12/1 21/50/1 50/13/1
f 53/20/1 50/13/1 22/71/1
f 16/77/1 78/12/1 53/20/1
f 79/9/1 20/56/1 54/22/1
f 57/29/1 54/22/1 23/62/1
f 19/75/1 79/9/1 57/29/1
f 80/6/1 13/78/1 58/31/1
f 61/38/1 58/31/1 24/55/1
f 18/52/1 80/6/1 61/38/1
f 81/3/1 17/79/1 62/40/1
f 65/47/1 62/40/1 25/49/1
f 12/80/1 81/3/1 65/47/1
f 28/1/1 4/81/1 45/2/1
f 34/4/1 8/54/1 41/5/1
f 35/7/1 9/53/1 48/8/1
f 32/10/1 7/51/1 49/11/1
f 50/13/1 21/50/1 37/14/1
f 51/16/1 22/71/1 52/17/1
f 44/19/1 16/77/1 53/20/1
f 54/22/1 20/56/1 36/23/1
f 55/25/1 23/62/1 56/26/1
f 47/28/1 19/75/1 57/29/1
f 58/31/1 13/78/1 29/32/1
f 59/34/1 24/55/1 60/35/1
f 46/37/1 18/52/1 61/38/1
f 62/40/1 17/79/1 33/41/1
f 63/43/1 25/49/1 64/44/1
f 40/46/1 12/80/1 65/47/1
f 66/48/1 65/47/1 25/49/1
f 49/11/1 66/48/1 63/43/1
f 7/51/1 40/46/1 66/48/1
f 67/45/1 64/44/1 18/52/1
f 37/14/1 67/45/1 46/37/1
f 21/50/1 63/43/1 67/45/1
f 68/42/1 33/41/1 8/54/1
f 64/44/1 68/42/1 34/4/1
f 25/49/1 62/40/1 68/42/1
f 69/39/1 61/38/1 24/55/1
f 48/8/1 69/39/1 59/34/1
f 9/53/1 46/37/1 69/39/1
f 70/36/1 60/35/1 14/57/1
f 36/23/1 70/36/1 30/58/1
f 20/56/1 59/34/1 70/36/1
f 71/33/1 29/32/1 3/60/1
f 60/35/1 71/33/1 42/61/1
f 24/55/1 58/31/1 71/33/1
f 72/30/1 57/29/1 23/62/1
f 31/63/1 72/30/1 55/25/1
f 6/65/1 47/28/1 72/30/1
f 73/27/1 56/26/1 10/66/1
f 43/68/1 73/27/1 26/67/1
f 15/64/1 55/25/1 73/27/1
f 74/24/1 36/23/1 5/59/1
f 56/26/1 74/24/1 38/70/1
f 23/62/1 54/22/1 74/24/1
f 75/21/1 53/20/1 22/71/1
f 27/72/1 75/21/1 51/16/1
f 2/74/1 44/19/1 75/21/1
f 76/18/1 52/17/1 19/75/1
f 39/76/1 76/18/1 47/28/1
f 11/73/1 51/16/1 76/18/1
f 77/15/1 37/14/1 9/53/1
f 52/17/1 77/15/1 35/7/1
f 22/71/1 50/13/1 77/15/1
f 78/12/1 49/11/1 21/50/1
f 53/20/1 78/12/1 50/13/1
f 16/77/1 32/10/1 78/12/1
f 79/9/1 48/8/1 20/56/1
f 57/29/1 79/9/1 54/22/1
f 19/75/1 35/7/1 79/9/1
f 80/6/1 41/5/1 13/78/1
f 61/38/1 80/6/1 58/31/1
f 18/52/1 34/4/1 80/6/1
f 81/3/1 45/2/1 17/79/1
f 65/47/1 81/3/1 62/40/1
f 12/80/1 28/1/1 81/3/1
