# Blender v2.78 (sub 0) OBJ File: ''
# www.blender.org
o Cylinder
v 0.000000 2.000000 -0.200000
v 0.039018 0.000000 -0.196157
v 0.000000 0.000000 -0.200000
v 0.039018 2.000000 -0.196157
v 0.076537 0.000000 -0.184776
v 0.076537 2.000000 -0.184776
v 0.111114 0.000000 -0.166294
v 0.111114 2.000000 -0.166294
v 0.141421 0.000000 -0.141421
v 0.141421 2.000000 -0.141421
v 0.166294 0.000000 -0.111114
v 0.166294 2.000000 -0.111114
v 0.184776 0.000000 -0.076537
v 0.184776 2.000000 -0.076537
v 0.196157 0.000000 -0.039018
v 0.196157 2.000000 -0.039018
v 0.200000 0.000000 0.000000
v 0.200000 2.000000 0.000000
v 0.196157 -0.000000 0.039018
v 0.196157 2.000000 0.039018
v 0.184776 -0.000000 0.076537
v 0.184776 2.000000 0.076537
v 0.166294 -0.000000 0.111114
v 0.166294 2.000000 0.111114
v 0.141421 -0.000000 0.141421
v 0.141421 2.000000 0.141421
v 0.111114 -0.000000 0.166294
v 0.111114 2.000000 0.166294
v 0.076537 -0.000000 0.184776
v 0.076537 2.000000 0.184776
v 0.039018 -0.000000 0.196157
v 0.039018 2.000000 0.196157
v 0.000000 -0.000000 0.200000
v 0.000000 2.000000 0.200000
v -0.039018 -0.000000 0.196157
v -0.039018 2.000000 0.196157
v -0.076537 -0.000000 0.184776
v -0.076537 2.000000 0.184776
v -0.111114 -0.000000 0.166294
v -0.111114 2.000000 0.166294
v -0.141421 -0.000000 0.141421
v -0.141421 2.000000 0.141421
v -0.166294 -0.000000 0.111114
v -0.166294 2.000000 0.111114
v -0.184776 -0.000000 0.076537
v -0.184776 2.000000 0.076537
v -0.196157 -0.000000 0.039018
v -0.196157 2.000000 0.039018
v -0.200000 0.000000 0.000000
v -0.200000 2.000000 0.000000
v -0.196157 0.000000 -0.039018
v -0.196157 2.000000 -0.039018
v -0.184776 0.000000 -0.076537
v -0.184776 2.000000 -0.076537
v -0.166294 0.000000 -0.111114
v -0.166294 2.000000 -0.111114
v -0.141421 0.000000 -0.141422
v -0.141421 2.000000 -0.141422
v -0.111114 0.000000 -0.166294
v -0.111114 2.000000 -0.166294
v -0.076536 0.000000 -0.184776
v -0.076536 2.000000 -0.184776
v -0.039018 0.000000 -0.196157
v -0.039018 2.000000 -0.196157
vt -0.0624 0.2602
vt -0.1249 -1.2698
vt -0.0624 -1.2698
vt -0.1249 0.2602
vt -0.1873 -1.2698
vt -0.1873 0.2602
vt -0.2498 -1.2698
vt -0.2498 0.2602
vt -0.3123 -1.2698
vt -0.3123 0.2602
vt -0.3748 -1.2698
vt -0.3748 0.2602
vt -0.4373 -1.2698
vt -0.4373 0.2602
vt -0.4998 -1.2698
vt 1.4998 0.2602
vt 1.4373 -1.2698
vt 1.4998 -1.2698
vt 1.4373 0.2602
vt 1.3748 -1.2698
vt 1.3748 0.2602
vt 1.3123 -1.2698
vt 1.3123 0.2602
vt 1.2498 -1.2698
vt 1.2498 0.2602
vt 1.1873 -1.2698
vt 1.1873 0.2602
vt 1.1249 -1.2698
vt 1.1249 0.2602
vt 1.0624 -1.2698
vt 1.0624 0.2602
vt 0.9999 -1.2698
vt 0.9999 0.2602
vt 0.9374 -1.2698
vt 0.9374 0.2602
vt 0.8749 -1.2698
vt 0.8749 0.2602
vt 0.8124 -1.2698
vt 0.8124 0.2602
vt 0.7499 -1.2698
vt 0.7499 0.2602
vt 0.6874 -1.2698
vt 0.6874 0.2602
vt 0.6250 -1.2698
vt 0.6250 0.2602
vt 0.5625 -1.2698
vt 0.5625 0.2602
vt 0.5000 -1.2698
vt 0.5000 0.2602
vt 0.4375 -1.2698
vt 0.4375 0.2602
vt 0.3750 -1.2698
vt 0.3750 0.2602
vt 0.3126 -1.2698
vt 0.3126 0.2602
vt 0.2501 -1.2698
vt 0.2501 0.2602
vt 0.1876 -1.2698
vt 0.1876 0.2602
vt 0.1251 -1.2698
vt 0.1251 0.2602
vt 0.0626 -1.2698
vt 0.2211 0.4086
vt 0.3734 0.4900
vt 0.1396 0.5609
vt 0.0626 0.2602
vt 0.0001 -1.2698
vt 0.0001 0.2602
vt 0.0487 0.6423
vt -0.1036 0.5609
vt -0.0222 0.4086
vt -0.4998 0.2602
vt 0.2919 0.6423
vt 0.2685 0.6470
vt 0.2445 0.6470
vt 0.2211 0.6423
vt 0.1989 0.6331
vt 0.1790 0.6198
vt 0.1621 0.6029
vt 0.1488 0.5830
vt 0.1350 0.5374
vt 0.1350 0.5135
vt 0.1396 0.4900
vt 0.1488 0.4679
vt 0.1621 0.4480
vt 0.1790 0.4310
vt 0.1989 0.4177
vt 0.2445 0.4039
vt 0.2685 0.4039
vt 0.2919 0.4086
vt 0.3141 0.4177
vt 0.3340 0.4310
vt 0.3509 0.4480
vt 0.3642 0.4679
vt 0.3780 0.5135
vt 0.3780 0.5374
vt 0.3734 0.5609
vt 0.3642 0.5830
vt 0.3509 0.6029
vt 0.3340 0.6198
vt 0.3141 0.6331
vt 0.0013 0.4039
vt 0.0252 0.4039
vt 0.0487 0.4086
vt 0.0709 0.4177
vt 0.0907 0.4310
vt 0.1077 0.4480
vt 0.1210 0.4679
vt 0.1302 0.4900
vt 0.1348 0.5135
vt 0.1348 0.5374
vt 0.1302 0.5609
vt 0.1210 0.5830
vt 0.1077 0.6029
vt 0.0907 0.6198
vt 0.0709 0.6331
vt 0.0252 0.6470
vt 0.0013 0.6470
vt -0.0222 0.6423
vt -0.0443 0.6331
vt -0.0642 0.6198
vt -0.0811 0.6029
vt -0.0944 0.5830
vt -0.1082 0.5374
vt -0.1082 0.5135
vt -0.1036 0.4900
vt -0.0944 0.4679
vt -0.0811 0.4480
vt -0.0642 0.4310
vt -0.0443 0.4177
vn 0.0000 0.0000 -1.0000
vn 0.1951 0.0000 -0.9808
vn 0.3827 0.0000 -0.9239
vn 0.5556 0.0000 -0.8315
vn 0.7071 0.0000 -0.7071
vn 0.8315 0.0000 -0.5556
vn 0.9239 0.0000 -0.3827
vn 0.9808 0.0000 -0.1951
vn 1.0000 -0.0000 -0.0000
vn 0.9808 -0.0000 0.1951
vn 0.9239 -0.0000 0.3827
vn 0.8315 -0.0000 0.5556
vn 0.7071 -0.0000 0.7071
vn 0.5556 -0.0000 0.8315
vn 0.3827 -0.0000 0.9239
vn 0.1951 -0.0000 0.9808
vn 0.0000 -0.0000 1.0000
vn -0.1951 -0.0000 0.9808
vn -0.3827 -0.0000 0.9239
vn -0.5556 -0.0000 0.8315
vn -0.7071 -0.0000 0.7071
vn -0.8315 -0.0000 0.5556
vn -0.9239 -0.0000 0.3827
vn -0.9808 -0.0000 0.1951
vn -1.0000 0.0000 0.0000
vn -0.9808 0.0000 -0.1951
vn -0.9239 0.0000 -0.3827
vn -0.8315 0.0000 -0.5556
vn -0.7071 0.0000 -0.7071
vn -0.5556 0.0000 -0.8315
vn -0.3827 0.0000 -0.9239
vn 0.0000 1.0000 -0.0000
vn -0.1951 0.0000 -0.9808
vn 0.0000 -1.0000 -0.0000
s 1
f 1/1/1 2/2/2 3/3/1
f 4/4/2 5/5/3 2/2/2
f 6/6/3 7/7/4 5/5/3
f 8/8/4 9/9/5 7/7/4
f 10/10/5 11/11/6 9/9/5
f 12/12/6 13/13/7 11/11/6
f 14/14/7 15/15/8 13/13/7
f 16/16/8 17/17/9 15/18/8
f 18/19/9 19/20/10 17/17/9
f 20/21/10 21/22/11 19/20/10
f 22/23/11 23/24/12 21/22/11
f 24/25/12 25/26/13 23/24/12
f 26/27/13 27/28/14 25/26/13
f 28/29/14 29/30/15 27/28/14
f 30/31/15 31/32/16 29/30/15
f 32/33/16 33/34/17 31/32/16
f 34/35/17 35/36/18 33/34/17
f 36/37/18 37/38/19 35/36/18
f 38/39/19 39/40/20 37/38/19
f 40/41/20 41/42/21 39/40/20
f 42/43/21 43/44/22 41/42/21
f 44/45/22 45/46/23 43/44/22
f 46/47/23 47/48/24 45/46/23
f 48/49/24 49/50/25 47/48/24
f 50/51/25 51/52/26 49/50/25
f 52/53/26 53/54/27 51/52/26
f 54/55/27 55/56/28 53/54/27
f 56/57/28 57/58/29 55/56/28
f 58/59/29 59/60/30 57/58/29
f 60/61/30 61/62/31 59/60/30
f 38/63/32 22/64/32 54/65/32
f 62/66/31 63/67/33 61/62/31
f 64/68/33 3/3/1 63/67/33
f 31/69/34 47/70/34 63/71/34
f 1/1/1 4/4/2 2/2/2
f 4/4/2 6/6/3 5/5/3
f 6/6/3 8/8/4 7/7/4
f 8/8/4 10/10/5 9/9/5
f 10/10/5 12/12/6 11/11/6
f 12/12/6 14/14/7 13/13/7
f 14/14/7 16/72/8 15/15/8
f 16/16/8 18/19/9 17/17/9
f 18/19/9 20/21/10 19/20/10
f 20/21/10 22/23/11 21/22/11
f 22/23/11 24/25/12 23/24/12
f 24/25/12 26/27/13 25/26/13
f 26/27/13 28/29/14 27/28/14
f 28/29/14 30/31/15 29/30/15
f 30/31/15 32/33/16 31/32/16
f 32/33/16 34/35/17 33/34/17
f 34/35/17 36/37/18 35/36/18
f 36/37/18 38/39/19 37/38/19
f 38/39/19 40/41/20 39/40/20
f 40/41/20 42/43/21 41/42/21
f 42/43/21 44/45/22 43/44/22
f 44/45/22 46/47/23 45/46/23
f 46/47/23 48/49/24 47/48/24
f 48/49/24 50/51/25 49/50/25
f 50/51/25 52/53/26 51/52/26
f 52/53/26 54/55/27 53/54/27
f 54/55/27 56/57/28 55/56/28
f 56/57/28 58/59/29 57/58/29
f 58/59/29 60/61/30 59/60/30
f 60/61/30 62/66/31 61/62/31
f 6/73/32 4/74/32 1/75/32
f 1/75/32 64/76/32 6/73/32
f 62/77/32 60/78/32 58/79/32
f 58/79/32 56/80/32 54/65/32
f 54/65/32 52/81/32 50/82/32
f 50/82/32 48/83/32 54/65/32
f 46/84/32 44/85/32 42/86/32
f 42/86/32 40/87/32 38/63/32
f 38/63/32 36/88/32 34/89/32
f 34/89/32 32/90/32 38/63/32
f 30/91/32 28/92/32 22/64/32
f 26/93/32 24/94/32 22/64/32
f 22/64/32 20/95/32 18/96/32
f 18/96/32 16/97/32 22/64/32
f 14/98/32 12/99/32 10/100/32
f 10/100/32 8/101/32 14/98/32
f 6/73/32 64/76/32 62/77/32
f 62/77/32 58/79/32 6/73/32
f 54/65/32 48/83/32 46/84/32
f 46/84/32 42/86/32 54/65/32
f 38/63/32 32/90/32 30/91/32
f 28/92/32 26/93/32 22/64/32
f 22/64/32 16/97/32 14/98/32
f 14/98/32 8/101/32 6/73/32
f 6/73/32 58/79/32 54/65/32
f 54/65/32 42/86/32 38/63/32
f 38/63/32 30/91/32 22/64/32
f 22/64/32 14/98/32 6/73/32
f 6/73/32 54/65/32 22/64/32
f 62/66/31 64/68/33 63/67/33
f 64/68/33 1/1/1 3/3/1
f 63/71/34 3/102/34 2/103/34
f 2/103/34 5/104/34 7/105/34
f 7/105/34 9/106/34 11/107/34
f 11/107/34 13/108/34 7/105/34
f 15/109/34 17/110/34 19/111/34
f 19/111/34 21/112/34 15/109/34
f 23/113/34 25/114/34 27/115/34
f 27/115/34 29/116/34 31/69/34
f 31/69/34 33/117/34 35/118/34
f 35/118/34 37/119/34 39/120/34
f 39/120/34 41/121/34 47/70/34
f 43/122/34 45/123/34 47/70/34
f 47/70/34 49/124/34 51/125/34
f 51/125/34 53/126/34 47/70/34
f 55/127/34 57/128/34 63/71/34
f 59/129/34 61/130/34 63/71/34
f 63/71/34 2/103/34 7/105/34
f 7/105/34 13/108/34 15/109/34
f 15/109/34 21/112/34 23/113/34
f 23/113/34 27/115/34 31/69/34
f 31/69/34 35/118/34 39/120/34
f 41/121/34 43/122/34 47/70/34
f 47/70/34 53/126/34 55/127/34
f 57/128/34 59/129/34 63/71/34
f 63/71/34 7/105/34 15/109/34
f 15/109/34 23/113/34 63/71/34
f 31/69/34 39/120/34 47/70/34
f 47/70/34 55/127/34 63/71/34
f 63/71/34 23/113/34 31/69/34
