# Blender v2.78 (sub 0) OBJ File: ''
# www.blender.org
o Cube
v -1.000000 0.500000 -1.000000
v -1.000000 0.500000 1.000000
v 1.000000 0.500000 1.000000
v 1.000000 0.500000 -1.000000
v 0.999999 1.000000 1.000001
v -1.000000 1.000000 1.000000
v 1.000000 0.000000 -1.000000
v 1.000000 0.000000 1.000000
v -1.000000 0.000000 1.000000
v -1.000000 0.000000 -1.000000
v 1.000000 0.500000 0.000000
v -1.000000 0.500000 -0.000000
v 1.000000 1.000000 0.000001
v -1.000000 1.000000 -0.000000
v -1.000000 0.000000 -0.000000
v 1.000000 0.000000 0.000000
vt -0.0266 1.5001
vt 0.9841 2.0055
vt -0.0266 2.0055
vt -0.0011 1.0026
vt 0.9938 2.9924
vt -0.0011 2.9924
vt 0.9865 2.0042
vt -0.0237 1.4981
vt 0.9869 1.4989
vt 1.4912 1.0026
vt 1.4912 2.9924
vt -0.4985 2.9924
vt -1.4934 1.0026
vt -0.4985 1.0026
vt -0.0233 0.9927
vt 0.9873 0.9935
vt -1.9909 2.9924
vt -1.4934 2.9924
vt 1.9887 1.0026
vt 1.9887 2.9924
vt 0.9841 1.5001
vt 1.9947 2.0055
vt 1.9976 1.4997
vt 1.9980 0.9944
vt -0.0266 0.9948
vt 0.9938 1.0026
vt -0.0241 2.0034
vt -1.9909 1.0026
vt 1.9947 1.5001
vt 0.9841 0.9948
vn -1.0000 0.0000 -0.0000
vn 0.0000 1.0000 -0.0000
vn 1.0000 0.0000 0.0000
vn -0.0000 -0.0000 1.0000
vn 0.0000 0.0000 -1.0000
s off
f 2/1/1 15/2/1 9/3/1
f 14/4/2 5/5/2 13/6/2
f 13/7/3 3/8/3 11/9/3
f 5/5/4 2/10/4 3/11/4
f 11/12/2 1/13/2 12/14/2
f 11/9/3 8/15/3 16/16/3
f 7/17/5 1/13/5 4/18/5
f 3/11/4 9/19/4 8/20/4
f 12/21/1 10/22/1 15/2/1
f 4/23/3 16/16/3 7/24/3
f 6/25/1 12/21/1 2/1/1
f 12/14/5 13/6/5 11/12/5
f 2/1/1 12/21/1 15/2/1
f 14/4/2 6/26/2 5/5/2
f 13/7/3 5/27/3 3/8/3
f 5/5/4 6/26/4 2/10/4
f 11/12/2 4/18/2 1/13/2
f 11/9/3 3/8/3 8/15/3
f 7/17/5 10/28/5 1/13/5
f 3/11/4 2/10/4 9/19/4
f 12/21/1 1/29/1 10/22/1
f 4/23/3 11/9/3 16/16/3
f 6/25/1 14/30/1 12/21/1
f 12/14/5 14/4/5 13/6/5
