# Blender v2.78 (sub 0) OBJ File: ''
# www.blender.org
o Plane
v 21.807941 19.999985 19.999998
v 21.807941 -0.000016 19.999998
v 21.807941 19.999985 -19.999998
v 21.807941 -0.000016 -19.999998
v 21.807941 19.999985 -0.000000
v 21.807941 9.999985 19.999998
v 21.807941 -0.000016 -0.000000
v 21.807941 9.999985 -19.999998
v 21.807941 9.999985 -0.000000
v 21.807941 19.999985 9.999999
v 21.807941 4.999985 19.999998
v 21.807941 -0.000016 -9.999999
v 21.807941 14.999985 -19.999998
v 21.807941 19.999985 -9.999999
v 21.807941 14.999985 19.999998
v 21.807941 -0.000016 9.999999
v 21.807941 4.999985 -19.999998
v 21.807941 9.999985 -9.999999
v 21.807941 9.999985 9.999999
v 21.807941 14.999985 -0.000000
v 21.807941 4.999985 -0.000000
v 21.807941 4.999985 9.999999
v 21.807941 14.999985 9.999999
v 21.807941 14.999985 -9.999999
v 21.807941 4.999985 -9.999999
v 21.807941 19.999985 14.999999
v 21.807941 2.499984 19.999998
v 21.807941 -0.000016 -14.999999
v 21.807941 17.499985 -19.999998
v 21.807941 19.999985 -5.000000
v 21.807941 12.499985 19.999998
v 21.807941 -0.000016 5.000000
v 21.807941 7.499985 -19.999998
v 21.807941 9.999985 -14.999999
v 21.807941 9.999985 5.000000
v 21.807941 17.499985 -0.000000
v 21.807941 7.499985 -0.000000
v 21.807941 19.999985 5.000000
v 21.807941 7.499985 19.999998
v 21.807941 -0.000016 -5.000000
v 21.807941 12.499985 -19.999998
v 21.807941 19.999985 -14.999999
v 21.807941 17.499985 19.999998
v 21.807941 -0.000016 14.999999
v 21.807941 2.499984 -19.999998
v 21.807941 9.999985 -5.000000
v 21.807941 9.999985 14.999999
v 21.807941 12.499985 -0.000000
v 21.807941 2.499984 -0.000000
v 21.807941 4.999985 5.000000
v 21.807941 4.999985 14.999999
v 21.807941 7.499985 9.999999
v 21.807941 2.499984 9.999999
v 21.807941 14.999985 5.000000
v 21.807941 14.999985 14.999999
v 21.807941 17.499985 9.999999
v 21.807941 12.499985 9.999999
v 21.807941 14.999985 -14.999999
v 21.807941 14.999985 -5.000000
v 21.807941 17.499985 -9.999999
v 21.807941 12.499985 -9.999999
v 21.807941 4.999985 -14.999999
v 21.807941 4.999985 -5.000000
v 21.807941 7.499985 -9.999999
v 21.807941 2.499984 -9.999999
v 21.807941 2.499984 -5.000000
v 21.807941 7.499985 -5.000000
v 21.807941 7.499985 -14.999999
v 21.807941 12.499985 -5.000000
v 21.807941 17.499985 -5.000000
v 21.807941 17.499985 -14.999999
v 21.807941 12.499985 14.999999
v 21.807941 17.499985 14.999999
v 21.807941 17.499985 5.000000
v 21.807941 2.499984 14.999999
v 21.807941 7.499985 14.999999
v 21.807941 7.499985 5.000000
v 21.807941 2.499984 5.000000
v 21.807941 12.499985 5.000000
v 21.807941 12.499985 -14.999999
v 21.807941 2.499984 -14.999999
v 21.807941 -0.000016 -17.499998
v 21.807941 9.999985 -17.499998
v 21.807941 14.999985 -17.499998
v 21.807941 4.999985 -17.499998
v 21.807941 19.999985 -17.499998
v 21.807941 7.499985 -17.499998
v 21.807941 17.499985 -17.499998
v 21.807941 12.499985 -17.499998
v 21.807941 2.499984 -17.499998
v 21.807941 19.999985 -12.499999
v 21.807941 -0.000016 -12.499999
v 21.807941 9.999985 -12.499999
v 21.807941 14.999985 -12.499999
v 21.807941 4.999985 -12.499999
v 21.807941 7.499985 -12.499999
v 21.807941 17.499985 -12.499999
v 21.807941 12.499985 -12.499999
v 21.807941 2.499984 -12.499999
v 21.807941 -0.000016 -7.500000
v 21.807941 9.999985 -7.500000
v 21.807941 14.999985 -7.500000
v 21.807941 4.999985 -7.500000
v 21.807941 19.999985 -7.500000
v 21.807941 2.499984 -7.500000
v 21.807941 7.499985 -7.500000
v 21.807941 12.499985 -7.500000
v 21.807941 17.499985 -7.500000
v 21.807941 19.999985 -2.500000
v 21.807941 -0.000016 -2.500000
v 21.807941 9.999985 -2.500000
v 21.807941 14.999985 -2.500000
v 21.807941 4.999985 -2.500000
v 21.807941 2.499984 -2.500000
v 21.807941 7.499985 -2.500000
v 21.807941 12.499985 -2.500000
v 21.807941 17.499985 -2.500000
v 21.807941 -0.000016 2.500000
v 21.807941 9.999985 2.500000
v 21.807941 4.999985 2.500000
v 21.807941 14.999985 2.500000
v 21.807941 19.999985 2.500000
v 21.807941 17.499985 2.500000
v 21.807941 7.499985 2.500000
v 21.807941 2.499984 2.500000
v 21.807941 12.499985 2.500000
v 21.807941 19.999985 7.500000
v 21.807941 -0.000016 7.500000
v 21.807941 9.999985 7.500000
v 21.807941 4.999985 7.500000
v 21.807941 14.999985 7.500000
v 21.807941 17.499985 7.500000
v 21.807941 7.499985 7.500000
v 21.807941 2.499984 7.500000
v 21.807941 12.499985 7.500000
v 21.807941 -0.000016 12.499999
v 21.807941 9.999985 12.499999
v 21.807941 4.999985 12.499999
v 21.807941 14.999985 12.499999
v 21.807941 19.999985 12.499999
v 21.807941 12.499985 12.499999
v 21.807941 17.499985 12.499999
v 21.807941 2.499984 12.499999
v 21.807941 7.499985 12.499999
v 21.807941 19.999985 17.499998
v 21.807941 -0.000016 17.499998
v 21.807941 9.999985 17.499998
v 21.807941 4.999985 17.499998
v 21.807941 14.999985 17.499998
v 21.807941 12.499985 17.499998
v 21.807941 17.499985 17.499998
v 21.807941 2.499984 17.499998
v 21.807941 7.499985 17.499998
vt 4.4994 -1.2498
vt 3.9995 -1.7497
vt 3.9995 -1.2498
vt 4.4994 0.7500
vt 3.9995 0.2500
vt 3.9995 0.7500
vt 0.5000 0.7500
vt 0.0001 0.2500
vt 0.0001 0.7500
vt 0.5000 -1.2498
vt 0.0001 -1.7497
vt 0.0001 -1.2498
vt 0.5000 -0.2499
vt 0.0001 -0.7498
vt 0.0001 -0.2499
vt -1.4997 -0.2499
vt -1.9996 -0.7498
vt -1.9996 -0.2499
vt -1.4997 -1.2498
vt -1.9996 -1.7497
vt -1.9996 -1.2498
vt 0.5000 1.7498
vt 0.0001 1.2499
vt 0.0001 1.7498
vt -1.4997 1.7498
vt -1.9996 1.2499
vt -1.9996 1.7498
vt -1.4997 0.7500
vt -1.9996 0.2500
vt -1.9996 0.7500
vt 4.4994 1.7498
vt 3.9995 1.2499
vt 3.9995 1.7498
vt 2.4997 1.7498
vt 1.9998 1.2499
vt 1.9998 1.7498
vt 2.4997 0.7500
vt 1.9998 0.2500
vt 1.9998 0.7500
vt 4.4994 -0.2499
vt 3.9995 -0.7498
vt 3.9995 -0.2499
vt 2.4997 -0.2499
vt 1.9998 -0.7498
vt 1.9998 -0.2499
vt 2.4997 -1.2498
vt 1.9998 -1.7497
vt 1.9998 -1.2498
vt 2.4997 -0.7498
vt 1.4999 -0.7498
vt 0.9999 -1.2498
vt 0.9999 -0.7498
vt 1.4999 -1.2498
vt 0.9999 -1.7497
vt 2.4997 0.2500
vt 1.4999 0.2500
vt 0.9999 -0.2499
vt 0.9999 0.2500
vt 1.4999 -0.2499
vt 4.4994 0.2500
vt 3.4996 0.2500
vt 2.9996 -0.2499
vt 2.9996 0.2500
vt 3.4996 -0.2499
vt 2.9996 -0.7498
vt 2.4997 1.2499
vt 1.4999 1.2499
vt 0.9999 0.7500
vt 0.9999 1.2499
vt 1.4999 0.7500
vt 2.4997 2.2497
vt 1.9998 2.2497
vt 1.4999 2.2497
vt 0.9999 1.7498
vt 0.9999 2.2497
vt 1.4999 1.7498
vt 4.4994 2.2497
vt 3.9995 2.2497
vt 3.4996 2.2497
vt 2.9996 1.7498
vt 2.9996 2.2497
vt 3.4996 1.7498
vt 2.9996 1.2499
vt -1.4997 1.2499
vt -2.4996 1.2499
vt -2.9995 0.7500
vt -2.9995 1.2499
vt -2.4996 0.7500
vt -2.9995 0.2500
vt -1.4997 2.2498
vt -1.9996 2.2498
vt -2.4996 2.2498
vt -2.9995 1.7498
vt -2.9995 2.2498
vt -2.4996 1.7498
vt 0.5000 2.2497
vt 0.0001 2.2497
vt -0.4999 2.2498
vt -0.9998 1.7498
vt -0.9998 2.2498
vt -0.4999 1.7498
vt -0.9998 1.2499
vt -1.4997 -0.7498
vt -2.4996 -0.7498
vt -2.9995 -1.2498
vt -2.9995 -0.7498
vt -2.4996 -1.2498
vt -2.9995 -1.7497
vt -1.4997 0.2500
vt -2.4996 0.2500
vt -2.9995 -0.2499
vt -2.4996 -0.2499
vt 0.5000 0.2500
vt -0.4999 0.2500
vt -0.9998 -0.2499
vt -0.9998 0.2500
vt -0.4999 -0.2499
vt -0.9998 -0.7498
vt 0.5000 -0.7498
vt -0.4999 -0.7498
vt -0.9998 -1.2498
vt -0.4999 -1.2498
vt -0.9998 -1.7497
vt 0.5000 1.2499
vt -0.4999 1.2499
vt -0.9998 0.7500
vt -0.4999 0.7500
vt 4.4994 1.2499
vt 3.4996 1.2499
vt 2.9996 0.7500
vt 3.4996 0.7500
vt 4.4994 -0.7498
vt 3.4996 -0.7498
vt 2.9996 -1.2498
vt 3.4996 -1.2498
vt 2.9996 -1.7497
vt 3.4996 -1.7497
vt 2.4997 -1.7497
vt 1.4999 -1.7497
vt 0.5000 -1.7497
vt -0.4999 -1.7497
vt -1.4997 -1.7497
vt -2.4996 -1.7497
vt -3.4994 -0.7498
vt -3.4994 -0.2499
vt -3.4994 0.2500
vt -3.4994 -1.7497
vt -3.4994 -1.2498
vt -3.4994 1.2499
vt -3.4994 1.7498
vt -3.4994 2.2498
vt -3.4994 0.7500
vt 4.4994 -1.7497
vn -1.0000 0.0000 0.0000
s off
f 45/1/1 82/2/1 90/3/1
f 41/4/1 83/5/1 89/6/1
f 48/7/1 119/8/1 126/9/1
f 49/10/1 118/11/1 125/12/1
f 37/13/1 120/14/1 124/15/1
f 52/16/1 138/17/1 144/18/1
f 53/19/1 136/20/1 143/21/1
f 36/22/1 121/23/1 123/24/1
f 56/25/1 139/26/1 142/27/1
f 57/28/1 137/29/1 141/30/1
f 29/31/1 84/32/1 88/33/1
f 60/34/1 102/35/1 108/36/1
f 61/37/1 101/38/1 107/39/1
f 33/40/1 85/41/1 87/42/1
f 64/43/1 103/44/1 106/45/1
f 65/46/1 100/47/1 105/48/1
f 25/49/1 105/48/1 103/44/1
f 63/50/1 114/51/1 113/52/1
f 66/53/1 110/54/1 114/51/1
f 18/55/1 106/45/1 101/38/1
f 46/56/1 115/57/1 111/58/1
f 67/59/1 113/52/1 115/57/1
f 8/60/1 87/42/1 83/5/1
f 34/61/1 96/62/1 93/63/1
f 68/64/1 95/65/1 96/62/1
f 24/66/1 107/39/1 102/35/1
f 59/67/1 116/68/1 112/69/1
f 69/70/1 111/58/1 116/68/1
f 14/71/1 108/36/1 104/72/1
f 30/73/1 117/74/1 109/75/1
f 70/76/1 112/69/1 117/74/1
f 3/77/1 88/33/1 86/78/1
f 42/79/1 97/80/1 91/81/1
f 71/82/1 94/83/1 97/80/1
f 23/84/1 141/30/1 139/26/1
f 55/85/1 150/86/1 149/87/1
f 72/88/1 147/89/1 150/86/1
f 10/90/1 142/27/1 140/91/1
f 26/92/1 151/93/1 145/94/1
f 73/95/1 149/87/1 151/93/1
f 5/96/1 123/24/1 122/97/1
f 38/98/1 132/99/1 127/100/1
f 74/101/1 131/102/1 132/99/1
f 22/103/1 143/21/1 138/17/1
f 51/104/1 152/105/1 148/106/1
f 75/107/1 146/108/1 152/105/1
f 19/109/1 144/18/1 137/29/1
f 47/110/1 153/111/1 147/89/1
f 76/112/1 148/106/1 153/111/1
f 9/113/1 124/15/1 119/8/1
f 35/114/1 133/115/1 129/116/1
f 77/117/1 130/118/1 133/115/1
f 21/119/1 125/12/1 120/14/1
f 50/120/1 134/121/1 130/118/1
f 78/122/1 128/123/1 134/121/1
f 20/124/1 126/9/1 121/23/1
f 54/125/1 135/126/1 131/102/1
f 79/127/1 129/116/1 135/126/1
f 13/128/1 89/6/1 84/32/1
f 58/129/1 98/130/1 94/83/1
f 80/131/1 93/63/1 98/130/1
f 17/132/1 90/3/1 85/41/1
f 62/133/1 99/134/1 95/65/1
f 81/135/1 92/136/1 99/134/1
f 85/41/1 81/135/1 62/133/1
f 84/32/1 80/131/1 58/129/1
f 86/78/1 71/82/1 42/79/1
f 83/5/1 68/64/1 34/61/1
f 87/42/1 62/133/1 68/64/1
f 88/33/1 58/129/1 71/82/1
f 89/6/1 34/61/1 80/131/1
f 90/3/1 28/137/1 81/135/1
f 99/134/1 12/138/1 65/46/1
f 95/65/1 65/46/1 25/49/1
f 98/130/1 18/55/1 61/37/1
f 94/83/1 61/37/1 24/66/1
f 97/80/1 24/66/1 60/34/1
f 91/81/1 60/34/1 14/71/1
f 96/62/1 25/49/1 64/43/1
f 93/63/1 64/43/1 18/55/1
f 104/72/1 70/76/1 30/73/1
f 102/35/1 69/70/1 59/67/1
f 101/38/1 67/59/1 46/56/1
f 103/44/1 66/53/1 63/50/1
f 105/48/1 40/139/1 66/53/1
f 106/45/1 63/50/1 67/59/1
f 107/39/1 46/56/1 69/70/1
f 108/36/1 59/67/1 70/76/1
f 117/74/1 20/124/1 36/22/1
f 109/75/1 36/22/1 5/96/1
f 116/68/1 9/113/1 48/7/1
f 112/69/1 48/7/1 20/124/1
f 115/57/1 21/119/1 37/13/1
f 111/58/1 37/13/1 9/113/1
f 114/51/1 7/140/1 49/10/1
f 113/52/1 49/10/1 21/119/1
f 121/23/1 79/127/1 54/125/1
f 120/14/1 78/122/1 50/120/1
f 119/8/1 77/117/1 35/114/1
f 122/97/1 74/101/1 38/98/1
f 123/24/1 54/125/1 74/101/1
f 124/15/1 50/120/1 77/117/1
f 125/12/1 32/141/1 78/122/1
f 126/9/1 35/114/1 79/127/1
f 135/126/1 19/109/1 57/28/1
f 131/102/1 57/28/1 23/84/1
f 134/121/1 16/142/1 53/19/1
f 130/118/1 53/19/1 22/103/1
f 133/115/1 22/103/1 52/16/1
f 129/116/1 52/16/1 19/109/1
f 132/99/1 23/84/1 56/25/1
f 127/100/1 56/25/1 10/90/1
f 137/29/1 76/112/1 47/110/1
f 138/17/1 75/107/1 51/104/1
f 140/91/1 73/95/1 26/92/1
f 139/26/1 72/88/1 55/85/1
f 141/30/1 47/110/1 72/88/1
f 142/27/1 55/85/1 73/95/1
f 143/21/1 44/143/1 75/107/1
f 144/18/1 51/104/1 76/112/1
f 153/111/1 11/144/1 39/145/1
f 147/89/1 39/145/1 6/146/1
f 152/105/1 2/147/1 27/148/1
f 148/106/1 27/148/1 11/144/1
f 151/93/1 15/149/1 43/150/1
f 145/94/1 43/150/1 1/151/1
f 150/86/1 6/146/1 31/152/1
f 149/87/1 31/152/1 15/149/1
f 45/1/1 4/153/1 82/2/1
f 41/4/1 8/60/1 83/5/1
f 48/7/1 9/113/1 119/8/1
f 49/10/1 7/140/1 118/11/1
f 37/13/1 21/119/1 120/14/1
f 52/16/1 22/103/1 138/17/1
f 53/19/1 16/142/1 136/20/1
f 36/22/1 20/124/1 121/23/1
f 56/25/1 23/84/1 139/26/1
f 57/28/1 19/109/1 137/29/1
f 29/31/1 13/128/1 84/32/1
f 60/34/1 24/66/1 102/35/1
f 61/37/1 18/55/1 101/38/1
f 33/40/1 17/132/1 85/41/1
f 64/43/1 25/49/1 103/44/1
f 65/46/1 12/138/1 100/47/1
f 25/49/1 65/46/1 105/48/1
f 63/50/1 66/53/1 114/51/1
f 66/53/1 40/139/1 110/54/1
f 18/55/1 64/43/1 106/45/1
f 46/56/1 67/59/1 115/57/1
f 67/59/1 63/50/1 113/52/1
f 8/60/1 33/40/1 87/42/1
f 34/61/1 68/64/1 96/62/1
f 68/64/1 62/133/1 95/65/1
f 24/66/1 61/37/1 107/39/1
f 59/67/1 69/70/1 116/68/1
f 69/70/1 46/56/1 111/58/1
f 14/71/1 60/34/1 108/36/1
f 30/73/1 70/76/1 117/74/1
f 70/76/1 59/67/1 112/69/1
f 3/77/1 29/31/1 88/33/1
f 42/79/1 71/82/1 97/80/1
f 71/82/1 58/129/1 94/83/1
f 23/84/1 57/28/1 141/30/1
f 55/85/1 72/88/1 150/86/1
f 72/88/1 47/110/1 147/89/1
f 10/90/1 56/25/1 142/27/1
f 26/92/1 73/95/1 151/93/1
f 73/95/1 55/85/1 149/87/1
f 5/96/1 36/22/1 123/24/1
f 38/98/1 74/101/1 132/99/1
f 74/101/1 54/125/1 131/102/1
f 22/103/1 53/19/1 143/21/1
f 51/104/1 75/107/1 152/105/1
f 75/107/1 44/143/1 146/108/1
f 19/109/1 52/16/1 144/18/1
f 47/110/1 76/112/1 153/111/1
f 76/112/1 51/104/1 148/106/1
f 9/113/1 37/13/1 124/15/1
f 35/114/1 77/117/1 133/115/1
f 77/117/1 50/120/1 130/118/1
f 21/119/1 49/10/1 125/12/1
f 50/120/1 78/122/1 134/121/1
f 78/122/1 32/141/1 128/123/1
f 20/124/1 48/7/1 126/9/1
f 54/125/1 79/127/1 135/126/1
f 79/127/1 35/114/1 129/116/1
f 13/128/1 41/4/1 89/6/1
f 58/129/1 80/131/1 98/130/1
f 80/131/1 34/61/1 93/63/1
f 17/132/1 45/1/1 90/3/1
f 62/133/1 81/135/1 99/134/1
f 81/135/1 28/137/1 92/136/1
f 85/41/1 90/3/1 81/135/1
f 84/32/1 89/6/1 80/131/1
f 86/78/1 88/33/1 71/82/1
f 83/5/1 87/42/1 68/64/1
f 87/42/1 85/41/1 62/133/1
f 88/33/1 84/32/1 58/129/1
f 89/6/1 83/5/1 34/61/1
f 90/3/1 82/2/1 28/137/1
f 99/134/1 92/136/1 12/138/1
f 95/65/1 99/134/1 65/46/1
f 98/130/1 93/63/1 18/55/1
f 94/83/1 98/130/1 61/37/1
f 97/80/1 94/83/1 24/66/1
f 91/81/1 97/80/1 60/34/1
f 96/62/1 95/65/1 25/49/1
f 93/63/1 96/62/1 64/43/1
f 104/72/1 108/36/1 70/76/1
f 102/35/1 107/39/1 69/70/1
f 101/38/1 106/45/1 67/59/1
f 103/44/1 105/48/1 66/53/1
f 105/48/1 100/47/1 40/139/1
f 106/45/1 103/44/1 63/50/1
f 107/39/1 101/38/1 46/56/1
f 108/36/1 102/35/1 59/67/1
f 117/74/1 112/69/1 20/124/1
f 109/75/1 117/74/1 36/22/1
f 116/68/1 111/58/1 9/113/1
f 112/69/1 116/68/1 48/7/1
f 115/57/1 113/52/1 21/119/1
f 111/58/1 115/57/1 37/13/1
f 114/51/1 110/54/1 7/140/1
f 113/52/1 114/51/1 49/10/1
f 121/23/1 126/9/1 79/127/1
f 120/14/1 125/12/1 78/122/1
f 119/8/1 124/15/1 77/117/1
f 122/97/1 123/24/1 74/101/1
f 123/24/1 121/23/1 54/125/1
f 124/15/1 120/14/1 50/120/1
f 125/12/1 118/11/1 32/141/1
f 126/9/1 119/8/1 35/114/1
f 135/126/1 129/116/1 19/109/1
f 131/102/1 135/126/1 57/28/1
f 134/121/1 128/123/1 16/142/1
f 130/118/1 134/121/1 53/19/1
f 133/115/1 130/118/1 22/103/1
f 129/116/1 133/115/1 52/16/1
f 132/99/1 131/102/1 23/84/1
f 127/100/1 132/99/1 56/25/1
f 137/29/1 144/18/1 76/112/1
f 138/17/1 143/21/1 75/107/1
f 140/91/1 142/27/1 73/95/1
f 139/26/1 141/30/1 72/88/1
f 141/30/1 137/29/1 47/110/1
f 142/27/1 139/26/1 55/85/1
f 143/21/1 136/20/1 44/143/1
f 144/18/1 138/17/1 51/104/1
f 153/111/1 148/106/1 11/144/1
f 147/89/1 153/111/1 39/145/1
f 152/105/1 146/108/1 2/147/1
f 148/106/1 152/105/1 27/148/1
f 151/93/1 149/87/1 15/149/1
f 145/94/1 151/93/1 43/150/1
f 150/86/1 147/89/1 6/146/1
f 149/87/1 150/86/1 31/152/1
