# Blender v2.78 (sub 0) OBJ File: ''
# www.blender.org
o Plane
v 21.807941 2.499987 -19.999998
v 21.807941 -0.000013 -17.499998
v 21.807941 2.499987 -17.499998
v 21.807941 12.499988 -19.999996
v 21.807941 9.999988 -17.499996
v 21.807941 12.499988 -17.499996
v 21.807941 12.499985 0.000002
v 21.807941 9.999985 2.500002
v 21.807941 12.499985 2.500002
v 21.807941 2.499984 0.000000
v 21.807941 -0.000016 2.500000
v 21.807941 2.499984 2.500000
v 21.807941 7.499985 0.000001
v 21.807941 4.999985 2.500001
v 21.807941 7.499985 2.500001
v 21.807941 7.499984 10.000000
v 21.807941 4.999983 12.500000
v 21.807941 7.499983 12.500000
v 21.807941 2.499982 9.999999
v 21.807941 -0.000018 12.499999
v 21.807941 2.499982 12.499999
v 21.807941 17.499985 0.000003
v 21.807941 14.999985 2.500002
v 21.807941 17.499985 2.500003
v 21.807941 17.499983 10.000002
v 21.807941 14.999983 12.500002
v 21.807941 17.499983 12.500002
v 21.807941 12.499983 10.000001
v 21.807941 9.999983 12.500001
v 21.807941 12.499983 12.500001
v 21.807941 17.499989 -19.999996
v 21.807941 14.999988 -17.499996
v 21.807941 17.499987 -17.499996
v 21.807941 17.499987 -9.999996
v 21.807941 14.999986 -7.499998
v 21.807941 17.499987 -7.499997
v 21.807941 12.499987 -9.999997
v 21.807941 9.999986 -7.499999
v 21.807941 12.499986 -7.499998
v 21.807941 7.499989 -19.999996
v 21.807941 4.999988 -17.499998
v 21.807941 7.499988 -17.499996
v 21.807941 7.499987 -9.999998
v 21.807941 4.999987 -7.499999
v 21.807941 7.499987 -7.499999
v 21.807941 2.499986 -9.999999
v 21.807941 -0.000015 -7.500000
v 21.807941 2.499985 -7.500000
v 21.807941 4.999987 -9.999998
v 21.807941 4.999986 -4.999999
v 21.807941 2.499985 -2.500000
v 21.807941 4.999986 -2.499999
v 21.807941 2.499985 -5.000000
v 21.807941 -0.000016 -2.500000
v 21.807941 9.999987 -9.999997
v 21.807941 9.999986 -4.999999
v 21.807941 7.499986 -2.499999
v 21.807941 9.999985 -2.499998
v 21.807941 7.499986 -4.999999
v 21.807941 9.999988 -19.999996
v 21.807941 9.999988 -14.999997
v 21.807941 7.499987 -12.499998
v 21.807941 9.999987 -12.499997
v 21.807941 7.499988 -14.999998
v 21.807941 4.999987 -12.499998
v 21.807941 14.999987 -9.999996
v 21.807941 14.999986 -4.999998
v 21.807941 12.499985 -2.499998
v 21.807941 14.999985 -2.499998
v 21.807941 12.499986 -4.999998
v 21.807941 19.999987 -9.999996
v 21.807941 19.999987 -7.499997
v 21.807941 19.999985 -4.999997
v 21.807941 17.499985 -2.499997
v 21.807941 19.999985 -2.499997
v 21.807941 17.499985 -4.999997
v 21.807941 19.999989 -19.999994
v 21.807941 19.999987 -17.499994
v 21.807941 19.999987 -14.999996
v 21.807941 17.499987 -12.499996
v 21.807941 19.999987 -12.499996
v 21.807941 17.499987 -14.999996
v 21.807941 14.999987 -12.499996
v 21.807941 14.999983 10.000002
v 21.807941 14.999982 15.000002
v 21.807941 12.499982 17.500000
v 21.807941 14.999982 17.500000
v 21.807941 12.499982 15.000001
v 21.807941 9.999982 17.500000
v 21.807941 19.999983 10.000002
v 21.807941 19.999983 12.500002
v 21.807941 19.999983 15.000002
v 21.807941 17.499983 17.500000
v 21.807941 19.999983 17.500002
v 21.807941 17.499983 15.000002
v 21.807941 19.999985 0.000003
v 21.807941 19.999985 2.500003
v 21.807941 19.999985 5.000003
v 21.807941 17.499983 7.500003
v 21.807941 19.999983 7.500003
v 21.807941 17.499985 5.000003
v 21.807941 14.999984 7.500002
v 21.807941 4.999984 10.000000
v 21.807941 4.999983 15.000000
v 21.807941 2.499981 17.499998
v 21.807941 4.999982 17.499998
v 21.807941 2.499982 14.999999
v 21.807941 -0.000019 17.499998
v 21.807941 9.999983 10.000001
v 21.807941 9.999982 15.000001
v 21.807941 7.499982 17.500000
v 21.807941 7.499983 15.000000
v 21.807941 9.999985 0.000002
v 21.807941 9.999984 5.000001
v 21.807941 7.499984 7.500001
v 21.807941 9.999984 7.500001
v 21.807941 7.499984 5.000001
v 21.807941 4.999984 7.500001
v 21.807941 4.999985 0.000001
v 21.807941 4.999984 5.000001
v 21.807941 2.499983 7.500000
v 21.807941 2.499983 5.000000
v 21.807941 -0.000017 7.500000
v 21.807941 14.999985 0.000002
v 21.807941 14.999984 5.000002
v 21.807941 12.499984 7.500002
v 21.807941 12.499984 5.000002
v 21.807941 14.999988 -19.999996
v 21.807941 14.999988 -14.999996
v 21.807941 12.499987 -12.499997
v 21.807941 12.499988 -14.999997
v 21.807941 4.999989 -19.999998
v 21.807941 4.999988 -14.999998
v 21.807941 2.499986 -12.499999
v 21.807941 2.499986 -14.999999
v 21.807941 -0.000014 -12.499999
v 21.807941 -0.000014 -14.999999
v 21.807941 -0.000014 -9.999999
v 21.807941 -0.000015 -5.000000
v 21.807941 -0.000016 -0.000000
v 21.807941 -0.000017 5.000000
v 21.807941 -0.000018 9.999999
v 21.807941 -0.000018 14.999999
v 21.807941 4.999982 19.999998
v 21.807941 7.499982 20.000000
v 21.807941 9.999982 20.000000
v 21.807941 -0.000019 19.999998
v 21.807941 2.499981 19.999998
v 21.807941 14.999982 20.000000
v 21.807941 17.499981 20.000000
v 21.807941 19.999981 20.000002
v 21.807941 12.499982 20.000000
v 21.807941 -0.000013 -19.999998
v 1.807941 2.499987 -19.999998
v 1.807941 12.499988 -19.999996
v 1.807941 17.499989 -19.999996
v 1.807941 7.499989 -19.999996
v 1.807941 9.999988 -19.999996
v 1.807941 19.999989 -19.999994
v 1.807941 14.999988 -19.999996
v 1.807941 4.999989 -19.999998
v 1.807941 -0.000013 -19.999998
v 18.950798 4.999989 -19.999998
v 16.093655 4.999989 -19.999998
v 13.236512 4.999989 -19.999998
v 10.379370 4.999989 -19.999998
v 7.522227 4.999989 -19.999998
v 4.665084 4.999989 -19.999998
v 4.665084 2.499987 -19.999998
v 7.522227 2.499987 -19.999998
v 10.379370 2.499987 -19.999998
v 13.236513 2.499987 -19.999998
v 16.093657 2.499987 -19.999998
v 18.950798 2.499987 -19.999998
v 18.950798 17.499989 -19.999996
v 16.093655 17.499989 -19.999996
v 13.236512 17.499989 -19.999996
v 10.379370 17.499989 -19.999996
v 7.522227 17.499989 -19.999996
v 4.665084 17.499989 -19.999996
v 4.665084 14.999988 -19.999996
v 7.522227 14.999988 -19.999996
v 10.379370 14.999988 -19.999996
v 13.236513 14.999988 -19.999996
v 16.093657 14.999988 -19.999996
v 18.950798 14.999988 -19.999996
v 4.665084 -0.000013 -19.999998
v 7.522227 -0.000013 -19.999998
v 10.379370 -0.000013 -19.999998
v 13.236513 -0.000013 -19.999998
v 16.093657 -0.000013 -19.999998
v 18.950798 -0.000013 -19.999998
v 4.665084 12.499988 -19.999996
v 7.522227 12.499988 -19.999996
v 10.379370 12.499988 -19.999996
v 13.236513 12.499988 -19.999996
v 16.093657 12.499988 -19.999996
v 18.950798 12.499988 -19.999996
v 4.665084 9.999988 -19.999996
v 7.522227 9.999988 -19.999996
v 10.379370 9.999988 -19.999996
v 13.236513 9.999988 -19.999996
v 16.093657 9.999988 -19.999996
v 18.950798 9.999988 -19.999996
v 18.950798 19.999989 -19.999994
v 16.093655 19.999989 -19.999994
v 13.236512 19.999989 -19.999994
v 10.379370 19.999989 -19.999994
v 7.522227 19.999989 -19.999994
v 4.665084 19.999989 -19.999994
v 18.950798 7.499989 -19.999996
v 16.093655 7.499989 -19.999996
v 13.236512 7.499989 -19.999996
v 10.379370 7.499989 -19.999996
v 7.522227 7.499989 -19.999996
v 4.665084 7.499989 -19.999996
vt 2.6664 -2.8329
vt 3.4997 -1.9997
vt 2.6664 -1.9997
vt -0.6665 -2.8329
vt 0.1667 -1.9997
vt -0.6665 -1.9997
vt -0.6665 3.8330
vt 0.1667 4.6662
vt -0.6665 4.6662
vt 2.6664 3.8329
vt 3.4997 4.6662
vt 2.6664 4.6662
vt 0.9999 3.8329
vt 1.8332 4.6662
vt 0.9999 4.6662
vt 0.9999 7.1659
vt 1.8332 7.9991
vt 0.9999 7.9991
vt 2.6664 7.1659
vt 3.4997 7.9991
vt 2.6664 7.9991
vt -2.3330 3.8330
vt -1.4998 4.6662
vt -2.3330 4.6662
vt -2.3330 7.1659
vt -1.4998 7.9991
vt -2.3330 7.9991
vt -0.6665 7.1659
vt 0.1667 7.9991
vt -0.6665 7.9991
vt -2.3330 -2.8329
vt -1.4998 -1.9997
vt -2.3330 -1.9997
vt -2.3330 0.5000
vt -1.4998 1.3332
vt -2.3330 1.3332
vt -0.6665 0.5000
vt 0.1667 1.3332
vt -0.6665 1.3332
vt 0.9999 -2.8329
vt 1.8332 -1.9997
vt 0.9999 -1.9997
vt 0.9999 0.5000
vt 1.8332 1.3332
vt 0.9999 1.3332
vt 2.6664 0.5000
vt 3.4997 1.3332
vt 2.6664 1.3332
vt 1.8332 0.5000
vt 1.8332 2.1665
vt 2.6664 2.9997
vt 1.8332 2.9997
vt 2.6664 2.1665
vt 3.4997 2.9997
vt 0.1667 0.5000
vt 0.1667 2.1665
vt 0.9999 2.9997
vt 0.1667 2.9997
vt 0.9999 2.1665
vt 0.1667 -2.8329
vt 0.1667 -1.1665
vt 0.9999 -0.3332
vt 0.1667 -0.3332
vt 0.9999 -1.1665
vt 1.8332 -0.3332
vt -1.4998 0.5000
vt -1.4998 2.1665
vt -0.6665 2.9997
vt -1.4998 2.9997
vt -0.6665 2.1665
vt -3.1662 0.5000
vt -3.1662 1.3332
vt -3.1662 2.1665
vt -2.3330 2.9997
vt -3.1662 2.9997
vt -2.3330 2.1665
vt -3.1662 -2.8329
vt -3.1662 -1.9997
vt -3.1662 -1.1665
vt -2.3330 -0.3332
vt -3.1662 -0.3332
vt -2.3330 -1.1665
vt -1.4998 -0.3332
vt -1.4998 7.1659
vt -1.4998 8.8324
vt -0.6665 9.6656
vt -1.4998 9.6656
vt -0.6665 8.8324
vt 0.1667 9.6656
vt -3.1662 7.1659
vt -3.1662 7.9991
vt -3.1662 8.8324
vt -2.3330 9.6656
vt -3.1662 9.6656
vt -2.3330 8.8324
vt -3.1662 3.8330
vt -3.1662 4.6662
vt -3.1662 5.4994
vt -2.3330 6.3327
vt -3.1662 6.3327
vt -2.3330 5.4994
vt -1.4998 6.3327
vt 1.8332 7.1659
vt 1.8332 8.8324
vt 2.6664 9.6656
vt 1.8332 9.6656
vt 2.6664 8.8324
vt 3.4997 9.6656
vt 0.1667 7.1659
vt 0.1667 8.8324
vt 0.9999 9.6656
vt 0.9999 8.8324
vt 0.1667 3.8329
vt 0.1667 5.4994
vt 0.9999 6.3327
vt 0.1667 6.3327
vt 0.9999 5.4994
vt 1.8332 6.3327
vt 1.8332 3.8329
vt 1.8332 5.4994
vt 2.6664 6.3327
vt 2.6664 5.4994
vt 3.4997 6.3327
vt -1.4998 3.8330
vt -1.4998 5.4994
vt -0.6665 6.3327
vt -0.6665 5.4994
vt -1.4998 -2.8329
vt -1.4998 -1.1665
vt -0.6665 -0.3332
vt -0.6665 -1.1665
vt 1.8332 -2.8329
vt 1.8332 -1.1665
vt 2.6664 -0.3332
vt 2.6664 -1.1665
vt 3.4997 -0.3332
vt 3.4997 -1.1665
vt 3.4997 0.5000
vt 3.4997 2.1665
vt 3.4997 3.8329
vt 3.4997 5.4994
vt 3.4997 7.1659
vt 3.4997 8.8324
vt 1.8332 10.4988
vt 0.9999 10.4988
vt 0.1667 10.4988
vt 3.4997 10.4988
vt 2.6664 10.4988
vt -1.4998 10.4988
vt -2.3330 10.4988
vt -3.1662 10.4988
vt -0.6665 10.4988
vt 3.4997 -2.8329
vt 1.8332 -8.5466
vt 2.6664 -9.4988
vt 2.6664 -8.5466
vt -2.3330 -8.5466
vt -1.4998 -9.4988
vt -1.4998 -8.5466
vt 3.4996 -9.4988
vt 3.4996 -8.5466
vt -0.6665 -9.4988
vt -0.6665 -8.5466
vt 0.1667 -9.4988
vt 0.1667 -8.5466
vt -3.1662 -8.5466
vt -2.3330 -9.4988
vt 0.9999 -8.5466
vt 1.8332 -9.4988
vt 0.9999 -9.4988
vt 0.9999 -3.7852
vt 0.1667 -4.7375
vt 0.9999 -4.7375
vt 0.1667 -5.6898
vt 0.9999 -5.6898
vt 0.9999 -6.6420
vt 0.1667 -6.6420
vt 0.9999 -7.5943
vt 0.1667 -7.5943
vt 1.8332 -3.7852
vt 1.8332 -4.7375
vt 1.8332 -5.6898
vt 1.8332 -6.6420
vt 1.8332 -7.5943
vt -2.3330 -3.7852
vt -3.1662 -3.7852
vt -2.3330 -4.7375
vt -3.1662 -4.7375
vt -2.3330 -5.6898
vt -3.1662 -5.6898
vt -2.3330 -6.6420
vt -3.1662 -6.6420
vt -2.3330 -7.5943
vt -3.1662 -7.5943
vt 0.1667 -3.7852
vt -0.6665 -3.7852
vt -0.6665 -4.7375
vt -0.6665 -5.6898
vt -0.6665 -6.6420
vt -0.6665 -7.5943
vt -1.4998 -3.7852
vt -1.4998 -4.7375
vt -1.4998 -5.6898
vt -1.4998 -6.6420
vt -1.4998 -7.5943
vt 3.4997 -3.7852
vt 2.6664 -3.7852
vt 3.4997 -4.7375
vt 2.6664 -4.7375
vt 3.4997 -5.6898
vt 2.6664 -5.6898
vt 3.4997 -6.6420
vt 2.6664 -6.6420
vt 3.4997 -7.5943
vt 2.6664 -7.5943
vt -3.1662 -9.4988
vn -1.0000 0.0000 0.0000
vn 0.0000 -0.0000 1.0000
s 1
f 1/1/1 2/2/1 3/3/1
f 4/4/1 5/5/1 6/6/1
f 7/7/1 8/8/1 9/9/1
f 10/10/1 11/11/1 12/12/1
f 13/13/1 14/14/1 15/15/1
f 16/16/1 17/17/1 18/18/1
f 19/19/1 20/20/1 21/21/1
f 22/22/1 23/23/1 24/24/1
f 25/25/1 26/26/1 27/27/1
f 28/28/1 29/29/1 30/30/1
f 31/31/1 32/32/1 33/33/1
f 34/34/1 35/35/1 36/36/1
f 37/37/1 38/38/1 39/39/1
f 40/40/1 41/41/1 42/42/1
f 43/43/1 44/44/1 45/45/1
f 46/46/1 47/47/1 48/48/1
f 49/49/1 48/48/1 44/44/1
f 50/50/1 51/51/1 52/52/1
f 53/53/1 54/54/1 51/51/1
f 55/55/1 45/45/1 38/38/1
f 56/56/1 57/57/1 58/58/1
f 59/59/1 52/52/1 57/57/1
f 60/60/1 42/42/1 5/5/1
f 61/61/1 62/62/1 63/63/1
f 64/64/1 65/65/1 62/62/1
f 66/66/1 39/39/1 35/35/1
f 67/67/1 68/68/1 69/69/1
f 70/70/1 58/58/1 68/68/1
f 71/71/1 36/36/1 72/72/1
f 73/73/1 74/74/1 75/75/1
f 76/76/1 69/69/1 74/74/1
f 77/77/1 33/33/1 78/78/1
f 79/79/1 80/80/1 81/81/1
f 82/82/1 83/83/1 80/80/1
f 84/84/1 30/30/1 26/26/1
f 85/85/1 86/86/1 87/87/1
f 88/88/1 89/89/1 86/86/1
f 90/90/1 27/27/1 91/91/1
f 92/92/1 93/93/1 94/94/1
f 95/95/1 87/87/1 93/93/1
f 96/96/1 24/24/1 97/97/1
f 98/98/1 99/99/1 100/100/1
f 101/101/1 102/102/1 99/99/1
f 103/103/1 21/21/1 17/17/1
f 104/104/1 105/105/1 106/106/1
f 107/107/1 108/108/1 105/105/1
f 109/109/1 18/18/1 29/29/1
f 110/110/1 111/111/1 89/89/1
f 112/112/1 106/106/1 111/111/1
f 113/113/1 15/15/1 8/8/1
f 114/114/1 115/115/1 116/116/1
f 117/117/1 118/118/1 115/115/1
f 119/119/1 12/12/1 14/14/1
f 120/120/1 121/121/1 118/118/1
f 122/122/1 123/123/1 121/121/1
f 124/124/1 9/9/1 23/23/1
f 125/125/1 126/126/1 102/102/1
f 127/127/1 116/116/1 126/126/1
f 128/128/1 6/6/1 32/32/1
f 129/129/1 130/130/1 83/83/1
f 131/131/1 63/63/1 130/130/1
f 132/132/1 3/3/1 41/41/1
f 133/133/1 134/134/1 65/65/1
f 135/135/1 136/136/1 134/134/1
f 41/41/1 135/135/1 133/133/1
f 32/32/1 131/131/1 129/129/1
f 78/78/1 82/82/1 79/79/1
f 5/5/1 64/64/1 61/61/1
f 42/42/1 133/133/1 64/64/1
f 33/33/1 129/129/1 82/82/1
f 6/6/1 61/61/1 131/131/1
f 3/3/1 137/137/1 135/135/1
f 134/134/1 138/138/1 46/46/1
f 65/65/1 46/46/1 49/49/1
f 130/130/1 55/55/1 37/37/1
f 83/83/1 37/37/1 66/66/1
f 80/80/1 66/66/1 34/34/1
f 81/81/1 34/34/1 71/71/1
f 62/62/1 49/49/1 43/43/1
f 63/63/1 43/43/1 55/55/1
f 72/72/1 76/76/1 73/73/1
f 35/35/1 70/70/1 67/67/1
f 38/38/1 59/59/1 56/56/1
f 44/44/1 53/53/1 50/50/1
f 48/48/1 139/139/1 53/53/1
f 45/45/1 50/50/1 59/59/1
f 39/39/1 56/56/1 70/70/1
f 36/36/1 67/67/1 76/76/1
f 74/74/1 124/124/1 22/22/1
f 75/75/1 22/22/1 96/96/1
f 68/68/1 113/113/1 7/7/1
f 69/69/1 7/7/1 124/124/1
f 57/57/1 119/119/1 13/13/1
f 58/58/1 13/13/1 113/113/1
f 51/51/1 140/140/1 10/10/1
f 52/52/1 10/10/1 119/119/1
f 23/23/1 127/127/1 125/125/1
f 14/14/1 122/122/1 120/120/1
f 8/8/1 117/117/1 114/114/1
f 97/97/1 101/101/1 98/98/1
f 24/24/1 125/125/1 101/101/1
f 15/15/1 120/120/1 117/117/1
f 12/12/1 141/141/1 122/122/1
f 9/9/1 114/114/1 127/127/1
f 126/126/1 109/109/1 28/28/1
f 102/102/1 28/28/1 84/84/1
f 121/121/1 142/142/1 19/19/1
f 118/118/1 19/19/1 103/103/1
f 115/115/1 103/103/1 16/16/1
f 116/116/1 16/16/1 109/109/1
f 99/99/1 84/84/1 25/25/1
f 100/100/1 25/25/1 90/90/1
f 29/29/1 112/112/1 110/110/1
f 17/17/1 107/107/1 104/104/1
f 91/91/1 95/95/1 92/92/1
f 26/26/1 88/88/1 85/85/1
f 30/30/1 110/110/1 88/88/1
f 27/27/1 85/85/1 95/95/1
f 21/21/1 143/143/1 107/107/1
f 18/18/1 104/104/1 112/112/1
f 111/111/1 144/144/1 145/145/1
f 89/89/1 145/145/1 146/146/1
f 105/105/1 147/147/1 148/148/1
f 106/106/1 148/148/1 144/144/1
f 93/93/1 149/149/1 150/150/1
f 94/94/1 150/150/1 151/151/1
f 86/86/1 146/146/1 152/152/1
f 87/87/1 152/152/1 149/149/1
f 1/1/1 153/153/1 2/2/1
f 4/4/1 60/60/1 5/5/1
f 7/7/1 113/113/1 8/8/1
f 10/10/1 140/140/1 11/11/1
f 13/13/1 119/119/1 14/14/1
f 16/16/1 103/103/1 17/17/1
f 19/19/1 142/142/1 20/20/1
f 22/22/1 124/124/1 23/23/1
f 25/25/1 84/84/1 26/26/1
f 28/28/1 109/109/1 29/29/1
f 31/31/1 128/128/1 32/32/1
f 34/34/1 66/66/1 35/35/1
f 37/37/1 55/55/1 38/38/1
f 40/40/1 132/132/1 41/41/1
f 43/43/1 49/49/1 44/44/1
f 46/46/1 138/138/1 47/47/1
f 49/49/1 46/46/1 48/48/1
f 50/50/1 53/53/1 51/51/1
f 53/53/1 139/139/1 54/54/1
f 55/55/1 43/43/1 45/45/1
f 56/56/1 59/59/1 57/57/1
f 59/59/1 50/50/1 52/52/1
f 60/60/1 40/40/1 42/42/1
f 61/61/1 64/64/1 62/62/1
f 64/64/1 133/133/1 65/65/1
f 66/66/1 37/37/1 39/39/1
f 67/67/1 70/70/1 68/68/1
f 70/70/1 56/56/1 58/58/1
f 71/71/1 34/34/1 36/36/1
f 73/73/1 76/76/1 74/74/1
f 76/76/1 67/67/1 69/69/1
f 77/77/1 31/31/1 33/33/1
f 79/79/1 82/82/1 80/80/1
f 82/82/1 129/129/1 83/83/1
f 84/84/1 28/28/1 30/30/1
f 85/85/1 88/88/1 86/86/1
f 88/88/1 110/110/1 89/89/1
f 90/90/1 25/25/1 27/27/1
f 92/92/1 95/95/1 93/93/1
f 95/95/1 85/85/1 87/87/1
f 96/96/1 22/22/1 24/24/1
f 98/98/1 101/101/1 99/99/1
f 101/101/1 125/125/1 102/102/1
f 103/103/1 19/19/1 21/21/1
f 104/104/1 107/107/1 105/105/1
f 107/107/1 143/143/1 108/108/1
f 109/109/1 16/16/1 18/18/1
f 110/110/1 112/112/1 111/111/1
f 112/112/1 104/104/1 106/106/1
f 113/113/1 13/13/1 15/15/1
f 114/114/1 117/117/1 115/115/1
f 117/117/1 120/120/1 118/118/1
f 119/119/1 10/10/1 12/12/1
f 120/120/1 122/122/1 121/121/1
f 122/122/1 141/141/1 123/123/1
f 124/124/1 7/7/1 9/9/1
f 125/125/1 127/127/1 126/126/1
f 127/127/1 114/114/1 116/116/1
f 128/128/1 4/4/1 6/6/1
f 129/129/1 131/131/1 130/130/1
f 131/131/1 61/61/1 63/63/1
f 132/132/1 1/1/1 3/3/1
f 133/133/1 135/135/1 134/134/1
f 135/135/1 137/137/1 136/136/1
f 41/41/1 3/3/1 135/135/1
f 32/32/1 6/6/1 131/131/1
f 78/78/1 33/33/1 82/82/1
f 5/5/1 42/42/1 64/64/1
f 42/42/1 41/41/1 133/133/1
f 33/33/1 32/32/1 129/129/1
f 6/6/1 5/5/1 61/61/1
f 3/3/1 2/2/1 137/137/1
f 134/134/1 136/136/1 138/138/1
f 65/65/1 134/134/1 46/46/1
f 130/130/1 63/63/1 55/55/1
f 83/83/1 130/130/1 37/37/1
f 80/80/1 83/83/1 66/66/1
f 81/81/1 80/80/1 34/34/1
f 62/62/1 65/65/1 49/49/1
f 63/63/1 62/62/1 43/43/1
f 72/72/1 36/36/1 76/76/1
f 35/35/1 39/39/1 70/70/1
f 38/38/1 45/45/1 59/59/1
f 44/44/1 48/48/1 53/53/1
f 48/48/1 47/47/1 139/139/1
f 45/45/1 44/44/1 50/50/1
f 39/39/1 38/38/1 56/56/1
f 36/36/1 35/35/1 67/67/1
f 74/74/1 69/69/1 124/124/1
f 75/75/1 74/74/1 22/22/1
f 68/68/1 58/58/1 113/113/1
f 69/69/1 68/68/1 7/7/1
f 57/57/1 52/52/1 119/119/1
f 58/58/1 57/57/1 13/13/1
f 51/51/1 54/54/1 140/140/1
f 52/52/1 51/51/1 10/10/1
f 23/23/1 9/9/1 127/127/1
f 14/14/1 12/12/1 122/122/1
f 8/8/1 15/15/1 117/117/1
f 97/97/1 24/24/1 101/101/1
f 24/24/1 23/23/1 125/125/1
f 15/15/1 14/14/1 120/120/1
f 12/12/1 11/11/1 141/141/1
f 9/9/1 8/8/1 114/114/1
f 126/126/1 116/116/1 109/109/1
f 102/102/1 126/126/1 28/28/1
f 121/121/1 123/123/1 142/142/1
f 118/118/1 121/121/1 19/19/1
f 115/115/1 118/118/1 103/103/1
f 116/116/1 115/115/1 16/16/1
f 99/99/1 102/102/1 84/84/1
f 100/100/1 99/99/1 25/25/1
f 29/29/1 18/18/1 112/112/1
f 17/17/1 21/21/1 107/107/1
f 91/91/1 27/27/1 95/95/1
f 26/26/1 30/30/1 88/88/1
f 30/30/1 29/29/1 110/110/1
f 27/27/1 26/26/1 85/85/1
f 21/21/1 20/20/1 143/143/1
f 18/18/1 17/17/1 104/104/1
f 111/111/1 106/106/1 144/144/1
f 89/89/1 111/111/1 145/145/1
f 105/105/1 108/108/1 147/147/1
f 106/106/1 105/105/1 148/148/1
f 93/93/1 87/87/1 149/149/1
f 94/94/1 93/93/1 150/150/1
f 86/86/1 89/89/1 146/146/1
f 87/87/1 86/86/1 152/152/1
f 168/154/2 154/155/2 169/156/2
f 180/157/2 160/158/2 181/159/2
f 169/156/2 162/160/2 187/161/2
f 181/159/2 155/162/2 193/163/2
f 193/163/2 158/164/2 199/165/2
f 210/166/2 156/167/2 180/157/2
f 216/168/2 161/169/2 168/154/2
f 199/165/2 157/170/2 216/168/2
f 60/60/2 211/171/2 40/40/2
f 211/171/2 203/172/2 212/173/2
f 212/173/2 202/174/2 213/175/2
f 202/174/2 214/176/2 213/175/2
f 201/177/2 215/178/2 214/176/2
f 200/179/2 216/168/2 215/178/2
f 40/40/2 163/180/2 132/132/2
f 211/171/2 164/181/2 163/180/2
f 212/173/2 165/182/2 164/181/2
f 213/175/2 166/183/2 165/182/2
f 214/176/2 167/184/2 166/183/2
f 215/178/2 168/154/2 167/184/2
f 77/77/2 175/185/2 31/31/2
f 205/186/2 176/187/2 175/185/2
f 206/188/2 177/189/2 176/187/2
f 207/190/2 178/191/2 177/189/2
f 208/192/2 179/193/2 178/191/2
f 209/194/2 180/157/2 179/193/2
f 4/4/2 204/195/2 60/60/2
f 198/196/2 203/172/2 204/195/2
f 197/197/2 202/174/2 203/172/2
f 196/198/2 201/177/2 202/174/2
f 195/199/2 200/179/2 201/177/2
f 194/200/2 199/165/2 200/179/2
f 128/128/2 198/196/2 4/4/2
f 186/201/2 197/197/2 198/196/2
f 185/202/2 196/198/2 197/197/2
f 184/203/2 195/199/2 196/198/2
f 183/204/2 194/200/2 195/199/2
f 182/205/2 193/163/2 194/200/2
f 1/1/2 192/206/2 153/153/2
f 174/207/2 191/208/2 192/206/2
f 173/209/2 190/210/2 191/208/2
f 172/211/2 189/212/2 190/210/2
f 171/213/2 188/214/2 189/212/2
f 170/215/2 187/161/2 188/214/2
f 31/31/2 186/201/2 128/128/2
f 175/185/2 185/202/2 186/201/2
f 176/187/2 184/203/2 185/202/2
f 177/189/2 183/204/2 184/203/2
f 178/191/2 182/205/2 183/204/2
f 179/193/2 181/159/2 182/205/2
f 132/132/2 174/207/2 1/1/2
f 163/180/2 173/209/2 174/207/2
f 164/181/2 172/211/2 173/209/2
f 165/182/2 171/213/2 172/211/2
f 166/183/2 170/215/2 171/213/2
f 167/184/2 169/156/2 170/215/2
f 168/154/2 161/169/2 154/155/2
f 180/157/2 156/167/2 160/158/2
f 169/156/2 154/155/2 162/160/2
f 181/159/2 160/158/2 155/162/2
f 193/163/2 155/162/2 158/164/2
f 210/166/2 159/216/2 156/167/2
f 216/168/2 157/170/2 161/169/2
f 199/165/2 158/164/2 157/170/2
f 60/60/2 204/195/2 211/171/2
f 211/171/2 204/195/2 203/172/2
f 212/173/2 203/172/2 202/174/2
f 202/174/2 201/177/2 214/176/2
f 201/177/2 200/179/2 215/178/2
f 200/179/2 199/165/2 216/168/2
f 40/40/2 211/171/2 163/180/2
f 211/171/2 212/173/2 164/181/2
f 212/173/2 213/175/2 165/182/2
f 213/175/2 214/176/2 166/183/2
f 214/176/2 215/178/2 167/184/2
f 215/178/2 216/168/2 168/154/2
f 77/77/2 205/186/2 175/185/2
f 205/186/2 206/188/2 176/187/2
f 206/188/2 207/190/2 177/189/2
f 207/190/2 208/192/2 178/191/2
f 208/192/2 209/194/2 179/193/2
f 209/194/2 210/166/2 180/157/2
f 4/4/2 198/196/2 204/195/2
f 198/196/2 197/197/2 203/172/2
f 197/197/2 196/198/2 202/174/2
f 196/198/2 195/199/2 201/177/2
f 195/199/2 194/200/2 200/179/2
f 194/200/2 193/163/2 199/165/2
f 128/128/2 186/201/2 198/196/2
f 186/201/2 185/202/2 197/197/2
f 185/202/2 184/203/2 196/198/2
f 184/203/2 183/204/2 195/199/2
f 183/204/2 182/205/2 194/200/2
f 182/205/2 181/159/2 193/163/2
f 1/1/2 174/207/2 192/206/2
f 174/207/2 173/209/2 191/208/2
f 173/209/2 172/211/2 190/210/2
f 172/211/2 171/213/2 189/212/2
f 171/213/2 170/215/2 188/214/2
f 170/215/2 169/156/2 187/161/2
f 31/31/2 175/185/2 186/201/2
f 175/185/2 176/187/2 185/202/2
f 176/187/2 177/189/2 184/203/2
f 177/189/2 178/191/2 183/204/2
f 178/191/2 179/193/2 182/205/2
f 179/193/2 180/157/2 181/159/2
f 132/132/2 163/180/2 174/207/2
f 163/180/2 164/181/2 173/209/2
f 164/181/2 165/182/2 172/211/2
f 165/182/2 166/183/2 171/213/2
f 166/183/2 167/184/2 170/215/2
f 167/184/2 168/154/2 169/156/2
