# Blender v2.78 (sub 0) OBJ File: ''
# www.blender.org
o Plane
v -5.000000 0.000000 5.000000
v 5.000000 0.000000 5.000000
v -5.000000 0.000000 -5.000000
v 5.000000 0.000000 -5.000000
v -5.000000 0.000000 -3.000000
v -5.000000 0.000000 -1.000000
v -5.000000 0.000000 1.000000
v -5.000000 0.000000 3.000000
v 5.000000 0.000000 3.000000
v 5.000000 0.000000 1.000000
v 5.000000 0.000000 -1.000000
v 5.000000 0.000000 -3.000000
v -3.000000 0.000000 5.000000
v -1.000000 0.000000 5.000000
v 1.000000 0.000000 5.000000
v 3.000000 0.000000 5.000000
v 3.000000 0.000000 -5.000000
v 1.000000 0.000000 -5.000000
v -1.000000 0.000000 -5.000000
v -3.000000 0.000000 -5.000000
v 3.000000 0.000000 3.000000
v 1.000000 0.000000 3.000000
v -1.000000 0.000000 3.000000
v -3.000000 0.000000 3.000000
v 3.000000 0.000000 1.000000
v -3.000000 0.000000 1.000000
v 3.000000 0.000000 -1.000000
v -3.000000 0.000000 -1.000000
v 3.000000 0.000000 -3.000000
v 1.000000 0.000000 -3.000000
v -1.000000 0.000000 -3.000000
v -3.000000 0.000000 -3.000000
v 3.000000 -2.689120 3.000000
v 1.000000 -2.689120 3.000000
v -1.000000 -2.689120 3.000000
v -3.000000 -2.689120 3.000000
v 3.000000 -2.689120 1.000000
v 1.000000 -2.689120 1.000000
v -1.000000 -2.689120 1.000000
v -3.000000 -2.689120 1.000000
v 3.000000 -2.689120 -1.000000
v 1.000000 -2.689120 -1.000000
v -1.000000 -2.689120 -1.000000
v -3.000000 -2.689120 -1.000000
v 3.000000 -2.689120 -3.000000
v 1.000000 -2.689120 -3.000000
v -1.000000 -2.689120 -3.000000
v -3.000000 -2.689120 -3.000000
vt 1.1235 0.4990
vt 0.4990 1.1235
vt 0.4990 0.4990
vt 1.1235 -1.9990
vt 0.4990 -1.3745
vt 0.4990 -1.9990
vt 1.1235 -1.3745
vt 0.4990 -0.7500
vt 1.1235 -0.7500
vt 0.4990 -0.1255
vt 1.1235 -0.1255
vt -1.3745 -0.1255
vt -1.9990 0.4990
vt -1.9990 -0.1255
vt 0.5010 1.9652
vt 1.1255 1.1255
vt 1.1255 1.9652
vt 1.1255 -0.7500
vt 1.9652 -0.1255
vt 1.1255 -0.1255
vt 1.1255 2.8069
vt 1.7500 1.9672
vt 1.7500 2.8069
vt -1.3745 -0.7500
vt -1.9990 -0.7500
vt 2.3745 -0.1235
vt 1.7500 0.7162
vt 1.7500 -0.1235
vt 1.7500 1.1255
vt 1.7500 1.9652
vt 2.9990 -0.1235
vt 2.3745 0.7162
vt -1.3745 -1.3745
vt -1.9990 -1.3745
vt 1.1255 -1.3745
vt 1.9652 -0.7500
vt -0.1235 2.8069
vt 0.5010 1.9672
vt 0.5010 2.8069
vt 1.1255 -1.9990
vt 1.9652 -1.3745
vt -1.3745 -1.9990
vt -1.9990 -1.9990
vt -0.7500 -1.9990
vt -0.1255 -1.9990
vt -0.7500 -1.3745
vt -0.1255 -1.3745
vt -1.3745 0.4990
vt -1.9990 1.1235
vt -0.7500 0.4990
vt -1.3745 1.1235
vt -0.1255 0.4990
vt -0.7500 1.1235
vt -0.1255 1.1235
vt -1.3745 2.3745
vt -1.9990 2.9990
vt -1.9990 2.3745
vt -0.7500 2.3745
vt -1.3745 2.9990
vt -0.1255 2.3745
vt -0.7500 2.9990
vt -1.3745 1.7500
vt -1.9990 1.7500
vt -0.7500 1.7500
vt -0.1255 1.7500
vt -1.3745 1.1255
vt -1.9990 1.1255
vt -0.7500 1.1255
vt -0.1255 1.1255
vt 1.1255 0.7162
vt 1.1255 -0.1235
vt -0.1235 1.9652
vt 0.5010 1.1255
vt 1.1255 1.9672
vt 1.1235 1.1235
vt 2.9990 0.7162
vt -0.1235 1.9672
vt 1.9652 -1.9990
vt -0.1255 2.9990
vt -0.1235 1.1255
vn 0.0000 1.0000 0.0000
vn 1.0000 0.0000 0.0000
vn 0.0000 0.0000 -1.0000
vn 0.0000 0.0000 1.0000
vn -1.0000 0.0000 0.0000
s off
f 12/1/1 17/2/1 29/3/1
f 2/4/1 21/5/1 16/6/1
f 9/7/1 25/8/1 21/5/1
f 10/9/1 27/10/1 25/8/1
f 11/11/1 29/3/1 27/10/1
f 28/12/1 5/13/1 6/14/1
f 26/15/2 44/16/2 28/17/2
f 23/18/3 36/19/3 24/20/3
f 30/21/4 45/22/4 29/23/4
f 26/24/1 6/14/1 7/25/1
f 27/26/5 37/27/5 25/28/5
f 28/17/2 48/29/2 32/30/2
f 29/31/5 41/32/5 27/26/5
f 24/33/1 7/25/1 8/34/1
f 22/35/3 35/36/3 23/18/3
f 32/37/4 47/38/4 31/39/4
f 21/40/3 34/41/3 22/35/3
f 13/42/1 8/34/1 1/43/1
f 14/44/1 24/33/1 13/42/1
f 15/45/1 23/46/1 14/44/1
f 16/6/1 22/47/1 15/45/1
f 32/48/1 3/49/1 5/13/1
f 31/50/1 20/51/1 32/48/1
f 30/52/1 19/53/1 31/50/1
f 29/3/1 18/54/1 30/52/1
f 43/55/1 48/56/1 44/57/1
f 42/58/1 47/59/1 43/55/1
f 41/60/1 46/61/1 42/58/1
f 39/62/1 44/57/1 40/63/1
f 38/64/1 43/55/1 39/62/1
f 37/65/1 42/58/1 38/64/1
f 35/66/1 40/63/1 36/67/1
f 34/68/1 39/62/1 35/66/1
f 33/69/1 38/64/1 34/68/1
f 25/28/5 33/70/5 21/71/5
f 24/72/2 40/73/2 26/15/2
f 31/39/4 46/74/4 30/21/4
f 12/1/1 4/75/1 17/2/1
f 2/4/1 9/7/1 21/5/1
f 9/7/1 10/9/1 25/8/1
f 10/9/1 11/11/1 27/10/1
f 11/11/1 12/1/1 29/3/1
f 28/12/1 32/48/1 5/13/1
f 26/15/2 40/73/2 44/16/2
f 23/18/3 35/36/3 36/19/3
f 30/21/4 46/74/4 45/22/4
f 26/24/1 28/12/1 6/14/1
f 27/26/5 41/32/5 37/27/5
f 28/17/2 44/16/2 48/29/2
f 29/31/5 45/76/5 41/32/5
f 24/33/1 26/24/1 7/25/1
f 22/35/3 34/41/3 35/36/3
f 32/37/4 48/77/4 47/38/4
f 21/40/3 33/78/3 34/41/3
f 13/42/1 24/33/1 8/34/1
f 14/44/1 23/46/1 24/33/1
f 15/45/1 22/47/1 23/46/1
f 16/6/1 21/5/1 22/47/1
f 32/48/1 20/51/1 3/49/1
f 31/50/1 19/53/1 20/51/1
f 30/52/1 18/54/1 19/53/1
f 29/3/1 17/2/1 18/54/1
f 43/55/1 47/59/1 48/56/1
f 42/58/1 46/61/1 47/59/1
f 41/60/1 45/79/1 46/61/1
f 39/62/1 43/55/1 44/57/1
f 38/64/1 42/58/1 43/55/1
f 37/65/1 41/60/1 42/58/1
f 35/66/1 39/62/1 40/63/1
f 34/68/1 38/64/1 39/62/1
f 33/69/1 37/65/1 38/64/1
f 25/28/5 37/27/5 33/70/5
f 24/72/2 36/80/2 40/73/2
f 31/39/4 47/38/4 46/74/4
