# Blender v2.78 (sub 0) OBJ File: ''
# www.blender.org
o Plane.001
v 3.000000 -0.536029 -3.000000
v -3.000000 -0.536029 -3.000000
v 3.000000 -0.536029 3.000000
v -3.000000 -0.536029 3.000000
v -3.000000 -0.536029 -1.000000
v -3.000000 -0.536029 1.000000
v 3.000000 -0.536029 1.000000
v 3.000000 -0.536029 -1.000000
v -1.000000 -0.536029 3.000000
v 1.000000 -0.536029 3.000000
v 1.000000 -0.536029 -3.000000
v -1.000000 -0.536029 -3.000000
v 1.000000 -0.536029 1.000000
v -1.000000 -0.536029 1.000000
v 1.000000 -0.536029 -1.000000
v -1.000000 -0.536029 -1.000000
vt 1.3332 -1.9995
vt 2.9995 -0.3332
vt 1.3332 -0.3332
vt -1.9995 -1.9995
vt -0.3332 -0.3332
vt -1.9995 -0.3332
vt -0.3332 -1.9995
vt -0.3332 1.3332
vt 1.3332 2.9995
vt -0.3332 2.9995
vt 1.3332 1.3332
vt -1.9995 1.3332
vt -1.9995 2.9995
vt 2.9995 2.9995
vt 2.9995 1.3332
vt 2.9995 -1.9995
vn 0.0000 1.0000 0.0000
s off
f 8/1/1 11/2/1 15/3/1
f 3/4/1 13/5/1 10/6/1
f 7/7/1 15/3/1 13/5/1
f 14/8/1 5/9/1 6/10/1
f 13/5/1 16/11/1 14/8/1
f 9/12/1 6/10/1 4/13/1
f 10/6/1 14/8/1 9/12/1
f 16/11/1 2/14/1 5/9/1
f 15/3/1 12/15/1 16/11/1
f 8/1/1 1/16/1 11/2/1
f 3/4/1 7/7/1 13/5/1
f 7/7/1 8/1/1 15/3/1
f 14/8/1 16/11/1 5/9/1
f 13/5/1 15/3/1 16/11/1
f 9/12/1 14/8/1 6/10/1
f 10/6/1 13/5/1 14/8/1
f 16/11/1 12/15/1 2/14/1
f 15/3/1 11/2/1 12/15/1
